Coordinates
version=1
nRows=7
nColumns=40
inDegrees=yes

Units are S.I. units (second, meters, Newtons, ...)
If the header above contains a line with 'inDegrees', this indicates whether rotational values are in degrees (yes) or radians (no).

endheader
time	pelvis_tilt	pelvis_list	pelvis_rotation	pelvis_tx	pelvis_ty	pelvis_tz	hip_flexion_r	hip_adduction_r	hip_rotation_r	knee_angle_r	knee_angle_r_beta	ankle_angle_r	subtalar_angle_r	mtp_angle_r	hip_flexion_l	hip_adduction_l	hip_rotation_l	knee_angle_l	knee_angle_l_beta	ankle_angle_l	subtalar_angle_l	mtp_angle_l	lumbar_extension	lumbar_bending	lumbar_rotation	arm_flex_r	arm_add_r	arm_rot_r	elbow_flex_r	pro_sup_r	wrist_flex_r	wrist_dev_r	arm_flex_l	arm_add_l	arm_rot_l	elbow_flex_l	pro_sup_l	wrist_flex_l	wrist_dev_l
      4.81500000	    -35.08941041	     -0.35985670	     -0.85694753	     -0.44228252	      0.59160440	     -0.89661861	    100.99604596	    -10.07346929	     -1.85664079	     98.84746360	      1.72521370	     35.97383377	      0.00000000	      0.00000000	    100.59324296	    -17.83068949	      0.28576854	     98.19947243	      1.71390412	     34.68971099	      0.00000000	      0.00000000	    -35.30310256	    -15.57431978	    -45.67442240	     34.83907564	    -25.86855295	     89.78739419	     85.70763017	      3.90456866	      0.00000000	      0.00000000	    -76.23511559	     -8.21663947	    -18.43970829	    120.82741529	     88.13779994	      0.00000000	      0.00000000
      4.82000000	    -35.11014006	     -0.36005319	     -0.88832171	     -0.44200652	      0.59163670	     -0.89671195	    100.97694836	    -10.09163277	     -1.90432858	     98.82370916	      1.72479910	     35.97634598	      0.00000000	      0.00000000	    100.58074425	    -17.85648923	      0.28033912	     98.21821651	      1.71423126	     34.72790838	      0.00000000	      0.00000000	    -35.34719475	    -15.57068603	    -45.66954318	     34.82088164	    -25.83366074	     89.78760244	     85.63644828	      3.93823875	      0.00000000	      0.00000000	    -76.19135613	     -8.23834854	    -18.40490446	    120.79951622	     88.14456821	      0.00000000	      0.00000000
      4.82500000	    -35.12628891	     -0.37593967	     -0.90994885	     -0.44177679	      0.59166868	     -0.89672960	    100.95376509	    -10.12037196	     -1.96676840	     98.81870130	      1.72471170	     36.03584130	      0.00000000	      0.00000000	    100.57020873	    -17.86170767	      0.31450348	     98.20768686	      1.71404749	     34.77979347	      0.00000000	      0.00000000	    -35.45171601	    -15.59413128	    -45.77478428	     34.85651079	    -25.75075604	     89.78709488	     85.52287117	      3.93204157	      0.00000000	      0.00000000	    -76.24402647	     -8.04508577	    -18.47842058	    120.82606097	     88.12327001	      0.00000000	      0.00000000
      4.83000000	    -35.09474730	     -0.38516425	     -1.02461338	     -0.44133182	      0.59190042	     -0.89660638	    100.85199477	    -10.03396859	     -2.03339275	     98.80087744	      1.72440062	     36.01527925	      0.00000000	      0.00000000	    100.48468817	    -17.99017906	      0.34314188	     98.23184756	      1.71446917	     34.83791511	      0.00000000	      0.00000000	    -35.47268148	    -15.61536726	    -45.67004338	     34.84594914	    -25.71448356	     89.78681648	     85.41461205	      4.05181682	      0.00000000	      0.00000000	    -76.17301129	     -8.17536752	    -18.40083591	    120.79751984	     88.13968404	      0.00000000	      0.00000000
      4.83500000	    -35.03339615	     -0.47954681	     -0.95730251	     -0.44082046	      0.59238402	     -0.89680195	    100.65846913	    -10.20107481	     -2.21442850	     98.74312201	      1.72339259	     36.13085938	      0.00000000	      0.00000000	    100.35449525	    -17.90964625	      0.40220460	     98.16982560	      1.71338668	     34.90137954	      0.00000000	      0.00000000	    -35.55211064	    -15.47174677	    -45.67524474	     34.85119264	    -25.67797428	     89.78621048	     85.33199674	      3.99937252	      0.00000000	      0.00000000	    -76.09217948	     -8.30451613	    -18.40122995	    120.80798002	     88.13829447	      0.00000000	      0.00000000
      4.84000000	    -34.97170339	     -0.45430416	     -0.94475368	     -0.44023303	      0.59290209	     -0.89701524	    100.49862903	    -10.27766392	     -2.22819818	     98.71913068	      1.72297386	     36.15708634	      0.00000000	      0.00000000	    100.16392824	    -17.87249660	      0.34621289	     98.11971952	      1.71251217	     34.98715036	      0.00000000	      0.00000000	    -35.59293972	    -15.45432831	    -45.69209030	     34.84138528	    -25.65480138	     89.78587225	     85.26811439	      3.96673206	      0.00000000	      0.00000000	    -76.00046155	     -8.47223314	    -18.33114933	    120.77704342	     88.12799145	      0.00000000	      0.00000000
      4.84500000	    -34.94635367	     -0.57302162	     -1.06297047	     -0.43972771	      0.59335528	     -0.89671525	    100.32182426	    -10.17914638	     -2.42702426	     98.63066195	      1.72142979	     36.17393863	      0.00000000	      0.00000000	    100.10631402	    -18.00265214	      0.50051709	     98.09315583	      1.71204854	     35.02882381	      0.00000000	      0.00000000	    -35.58487920	    -15.44746681	    -45.61545904	     34.82902695	    -25.56896084	     89.78580918	     85.15407578	      3.96732630	      0.00000000	      0.00000000	    -76.07046505	     -8.43756734	    -18.35960189	    120.81677833	     88.11178384	      0.00000000	      0.00000000
